<svg width="124" height="45" viewBox="0 0 124 45" fill="none" xmlns="http://www.w3.org/2000/svg">
<path id="Arrow 5" d="M59.1055 33.0592L60.5762 33.3543L59.1055 33.0592ZM122.93 14.6391C123.608 14.163 123.771 13.2274 123.295 12.5495L115.536 1.50198C115.06 0.824049 114.125 0.660457 113.447 1.13659C112.769 1.61272 112.605 2.54827 113.081 3.2262L119.978 13.0462L110.158 19.9431C109.48 20.4192 109.317 21.3548 109.793 22.0327C110.269 22.7107 111.204 22.8743 111.882 22.3981L122.93 14.6391ZM1.52734 13.4116C0.491884 14.4969 0.49227 14.4973 0.492854 14.4978C0.493311 14.4983 0.494091 14.499 0.495003 14.4999C0.496828 14.5016 0.499437 14.5041 0.502823 14.5073C0.509595 14.5138 0.519477 14.5232 0.532423 14.5354C0.558314 14.56 0.596461 14.5961 0.646493 14.6433C0.746554 14.7377 0.894162 14.8763 1.08634 15.0553C1.47069 15.4133 2.03342 15.9328 2.75075 16.5825C4.18516 17.8816 6.23906 19.7024 8.72195 21.7939C13.6811 25.9712 20.38 31.2522 27.2876 35.6108C34.1372 39.9328 41.4152 43.4949 47.4826 43.9797C50.5596 44.2256 53.4656 43.6909 55.8262 41.9181C58.1879 40.1444 59.7856 37.2953 60.5762 33.3543L57.6348 32.7642C56.9399 36.2277 55.6241 38.3181 54.0246 39.5192C52.424 40.7214 50.321 41.197 47.7215 40.9893C42.4359 40.5669 35.6908 37.3659 28.8886 33.0737C22.1444 28.8182 15.563 23.6339 10.6547 19.4994C8.20384 17.435 6.17725 15.6383 4.76462 14.3589C4.05842 13.7193 3.50598 13.2093 3.13104 12.86C2.94358 12.6854 2.80051 12.5511 2.70481 12.4608C2.65696 12.4157 2.62095 12.3816 2.59716 12.359C2.58527 12.3477 2.57642 12.3393 2.57068 12.3339C2.56781 12.3311 2.56571 12.3291 2.5644 12.3279C2.56374 12.3272 2.56334 12.3269 2.56301 12.3266C2.56281 12.3264 2.5628 12.3264 1.52734 13.4116ZM60.5762 33.3543C61.9522 26.4959 66.2632 21.8974 72.145 18.8235C78.0714 15.7263 85.5282 14.2212 92.9356 13.6237C100.323 13.0279 107.547 13.3432 112.936 13.8109C115.627 14.0444 117.853 14.3153 119.403 14.5272C120.178 14.6332 120.783 14.7244 121.193 14.7887C121.398 14.8209 121.554 14.8464 121.658 14.8636C121.71 14.8723 121.749 14.8788 121.774 14.8832C121.787 14.8853 121.796 14.8869 121.802 14.8879C121.805 14.8884 121.807 14.8888 121.808 14.889C121.809 14.8891 121.809 14.8892 121.81 14.8892C121.81 14.8892 121.809 14.8892 122.068 13.4116C122.326 11.934 122.326 11.9339 122.325 11.9338C122.324 11.9337 122.323 11.9335 122.322 11.9333C122.32 11.9329 122.317 11.9324 122.313 11.9317C122.305 11.9303 122.293 11.9284 122.279 11.9259C122.249 11.9208 122.206 11.9136 122.15 11.9042C122.038 11.8856 121.873 11.8587 121.659 11.825C121.23 11.7578 120.605 11.6637 119.809 11.5549C118.218 11.3373 115.943 11.0605 113.195 10.8221C107.707 10.3458 100.305 10.0197 92.6944 10.6334C85.104 11.2456 77.1916 12.8012 70.7555 16.1647C64.2748 19.5515 59.23 24.8134 57.6348 32.7642L60.5762 33.3543Z" fill="white"/>
</svg>
